<svg xmlns="http://www.w3.org/2000/svg" xmlns:xlink="http://www.w3.org/1999/xlink" width="1080" zoomAndPan="magnify" viewBox="0 0 810 809.999993" height="1080" preserveAspectRatio="xMidYMid meet" version="1.0"><path fill="#00bf63" d="M 405 81 C 145.800781 81 81 145.800781 81 405 C 81 664.199219 145.800781 729 405 729 C 664.199219 729 729 664.199219 729 405 C 729 145.800781 664.199219 81 405 81 M 526.5 607.769531 L 437.128906 607.769531 L 437.128906 432.082031 C 437.128906 405.757812 432.082031 388.285156 414.613281 388.285156 C 395.386719 388.285156 372.085938 415.367188 372.085938 459.160156 L 372.085938 607.742188 L 283.5 607.742188 L 283.5 215.191406 L 372.328125 199.988281 L 372.328125 346.546875 C 391.582031 329.101562 418.417969 321.488281 445.769531 321.488281 C 503.980469 321.488281 526.5 359.722656 526.5 419.445312 Z M 526.5 607.769531 " fill-opacity="1" fill-rule="nonzero"/></svg>