<svg xmlns="http://www.w3.org/2000/svg" xmlns:xlink="http://www.w3.org/1999/xlink" width="1080" zoomAndPan="magnify" viewBox="0 0 810 809.999993" height="1080" preserveAspectRatio="xMidYMid meet" version="1.0"><path fill="#018001" d="M 405 81 C 226.738281 81 81 226.738281 81 405 C 81 583.261719 226.738281 729 405 729 C 583.261719 729 729 583.261719 729 405 C 729 226.738281 584.820312 81 405 81 M 554.039062 549.179688 C 547.582031 558.878906 536.199219 562.140625 526.5 555.597656 C 450.359375 508.679688 354.800781 498.960938 241.320312 524.820312 C 230.039062 528.160156 220.320312 520.058594 217.039062 510.238281 C 213.878906 498.960938 221.898438 489.261719 231.597656 486 C 354.800781 458.460938 461.742188 469.738281 545.898438 521.640625 C 557.300781 526.5 558.859375 539.460938 554.019531 549.179688 Z M 592.941406 460.058594 C 584.820312 471.460938 570.261719 476.320312 558.859375 468.179688 C 471.441406 414.699219 338.539062 398.582031 236.558594 430.941406 C 223.582031 434.097656 208.917969 427.679688 205.761719 414.679688 C 202.5 401.71875 208.917969 387.160156 221.898438 383.898438 C 340.242188 348.238281 485.980469 366.160156 586.398438 427.660156 C 596.199219 432.519531 601.058594 448.738281 592.941406 460.039062 Z M 596.222656 369.359375 C 492.441406 307.738281 319.140625 301.320312 220.320312 332.121094 C 204.101562 336.960938 187.941406 327.261719 183.082031 312.597656 C 178.242188 296.460938 187.941406 280.21875 202.5 275.359375 C 317.582031 241.320312 507.082031 247.839844 627.019531 319.121094 C 641.582031 327.238281 646.398438 346.660156 638.300781 361.21875 C 630.179688 372.621094 610.761719 377.441406 596.199219 369.339844 Z M 596.222656 369.359375 " fill-opacity="1" fill-rule="nonzero"/></svg>